<?xml version="1.0" standalone="no"?>
<!DOCTYPE svg PUBLIC "-//W3C//DTD SVG 20010904//EN"
 "http://www.w3.org/TR/2001/REC-SVG-20010904/DTD/svg10.dtd">
<svg version="1.0" xmlns="http://www.w3.org/2000/svg"
 width="1280.000000pt" height="853.000000pt" viewBox="0 0 1280.000000 853.000000"
 preserveAspectRatio="xMidYMid meet">
<metadata>
Created by potrace 1.15, written by Peter Selinger 2001-2017
</metadata>
<g transform="translate(0.000000,853.000000) scale(0.100000,-0.100000)"
fill="#ffffff" stroke="none">
<path d="M3003 8184 c-369 -372 -372 -375 -322 -425 20 -20 29 -20 312 -18
l292 2 3 -513 2 -513 -62 59 c-35 32 -211 203 -393 379 -420 409 -416 405
-451 405 -25 0 -111 -82 -641 -615 -344 -346 -615 -626 -619 -639 -7 -30 11
-64 40 -75 12 -5 149 -7 304 -4 l282 6 0 -239 c0 -131 3 -305 7 -386 3 -83 2
-148 -3 -148 -5 0 -40 31 -79 70 -121 120 -66 155 -574 -355 l-436 -437 -6
128 c-3 71 -6 270 -7 442 l-2 312 290 0 291 0 24 25 c31 30 31 44 2 83 -19 28
-947 931 -1167 1137 l-85 80 -3 -37 c-4 -42 -47 2 783 -802 231 -223 422 -411
423 -416 2 -6 -111 -10 -308 -10 l-312 0 3 -508 4 -508 -148 -148 c-158 -159
-171 -182 -127 -226 18 -18 33 -20 150 -20 l130 0 0 -257 c0 -254 10 -815 15
-821 2 -2 15 0 30 4 l28 7 -7 532 -7 532 127 6 c70 3 131 4 136 1 4 -3 8 -225
8 -493 0 -268 3 -490 6 -494 3 -3 19 -1 36 5 l31 11 -6 141 c-4 78 -7 311 -7
519 l0 377 -165 0 -165 0 0 153 0 152 453 453 452 452 97 -97 96 -98 7 -910
c4 -500 8 -911 9 -912 0 -1 14 1 30 4 l29 6 -7 880 -7 880 302 -294 c167 -162
385 -373 485 -469 100 -96 182 -178 183 -182 0 -4 -139 -9 -311 -10 l-312 -3
3 -345 c1 -190 4 -346 6 -348 1 -2 14 0 29 4 l26 6 0 314 0 314 288 0 c323 0
332 2 332 65 0 31 -35 68 -514 532 l-514 498 -2 245 c-1 135 -3 250 -5 255 -1
6 -3 99 -3 208 l-2 197 -317 0 -317 0 604 605 c333 333 608 604 612 603 3 -2
209 -200 457 -442 l451 -438 -2 -157 -3 -156 -153 -3 -153 -3 6 -1027 c4 -565
8 -1040 10 -1057 2 -16 4 -96 4 -177 l1 -147 31 11 31 11 -6 531 c-3 292 -9
816 -12 1164 l-6 632 125 0 125 0 6 -827 c6 -803 15 -1415 21 -1421 1 -2 15 0
30 4 l27 7 -6 496 c-3 273 -9 776 -12 1118 l-6 621 142 4 c136 3 143 4 162 27
13 17 17 33 13 50 -3 16 -66 84 -162 176 l-156 151 -5 583 -5 583 -313 -7
c-188 -4 -314 -4 -314 2 0 5 53 61 118 126 64 64 225 224 357 357 l240 240
-45 0 -45 0 -342 -346z m604 -1870 c-1 -1 -57 -5 -124 -9 l-123 -6 0 133 0
133 125 -125 c68 -68 123 -125 122 -126z m-3007 -1858 c0 -95 -3 -115 -16
-120 -22 -8 -224 -8 -224 1 0 10 223 233 232 233 5 0 8 -51 8 -114z"/>
<path d="M4455 8502 c17 -16 180 -174 364 -353 l334 -324 -314 -5 -314 -5 4
-348 4 -348 -147 -148 c-156 -158 -168 -179 -126 -221 18 -18 33 -20 143 -20
l124 0 6 -202 c4 -112 7 -286 7 -388 l0 -185 -430 -430 c-314 -314 -430 -437
-430 -453 0 -13 11 -34 25 -47 l24 -25 291 0 290 0 0 -247 c1 -219 8 -463 15
-471 1 -1 15 2 30 8 l28 11 -6 277 c-4 152 -7 326 -7 386 l0 108 -317 -7 -318
-7 400 401 400 401 6 -362 c3 -200 7 -540 8 -757 l1 -393 23 6 c12 3 26 6 31
6 6 0 7 314 3 785 l-6 784 134 134 134 135 3 -112 c2 -61 5 -311 6 -556 2
-432 12 -1072 17 -1078 2 -2 15 0 30 4 l28 7 -7 506 c-10 782 -9 1295 2 1299
5 1 212 -194 461 -435 l451 -438 0 -157 0 -158 -155 0 -155 0 0 -219 0 -219
28 7 27 7 3 182 2 182 125 0 125 0 0 -141 0 -141 24 4 c14 3 306 88 650 189
l626 184 0 41 c0 25 6 47 15 54 13 11 22 7 54 -24 32 -31 42 -35 69 -30 18 4
32 10 32 14 0 19 -119 110 -143 110 l-26 0 -3 171 -3 171 145 144 c80 80 146
141 147 137 1 -4 4 -160 6 -346 3 -186 7 -341 10 -344 4 -3 18 -2 33 1 l27 7
-8 377 -7 376 68 -61 c38 -34 89 -82 114 -108 25 -26 129 -128 232 -227 178
-171 189 -179 218 -173 17 4 30 10 28 14 -7 17 -622 607 -639 613 -18 7 -19
23 -19 363 l0 355 108 0 c126 0 152 11 152 65 0 29 -14 47 -135 163 l-135 129
-2 449 c-1 247 -4 567 -6 712 l-3 262 -327 -2 -327 -3 298 -2 297 -3 0 -228
c0 -125 3 -429 6 -677 l7 -450 -129 125 c-604 588 -770 747 -793 763 -16 11
-35 15 -51 12 -15 -4 -116 -97 -247 -228 l-223 -222 -107 105 c-301 293 -350
339 -370 345 -33 9 -52 -5 -180 -135 -64 -66 -120 -120 -125 -120 -4 0 -8 11
-8 24 0 19 -78 100 -347 360 l-346 336 -46 0 -46 0 30 -28z m1278 -713 c119
-116 217 -214 217 -218 0 -4 -164 -173 -365 -376 -330 -333 -365 -372 -365
-401 0 -62 9 -64 337 -64 l293 0 0 -487 c0 -269 3 -548 7 -622 4 -93 3 -132
-5 -130 -5 2 -165 155 -354 339 -505 493 -511 498 -540 505 l-28 7 0 230 0
230 -167 -3 -168 -4 0 147 0 146 450 456 c248 251 455 456 461 456 5 0 108
-95 227 -211z m-848 -319 c-159 -159 -291 -290 -292 -290 -2 0 -3 131 -3 290
l0 290 292 0 292 0 -289 -290z m-355 -565 l0 -115 -117 0 -118 0 115 115 c63
63 116 115 117 115 2 0 3 -52 3 -115z m2912 -212 c3 -32 6 -200 7 -372 l2
-315 -143 -143 c-78 -79 -146 -143 -150 -143 -4 0 -8 231 -8 514 l0 515 144 0
144 1 4 -57z m-2572 -185 l0 -222 -135 -135 -135 -136 0 342 c0 188 -3 348 -6
357 -5 14 10 16 135 16 l141 0 0 -222z"/>
<path d="M8673 7801 l7 -729 -520 -524 c-664 -669 -649 -618 -187 -618 l297 0
0 -244 0 -245 30 10 30 11 0 264 0 264 -316 2 -316 3 491 495 490 495 1 -140
c0 -251 13 -1270 15 -1273 2 -2 15 0 30 4 l28 7 -6 731 -7 732 79 78 c43 43
83 77 88 75 6 -2 126 -116 267 -254 l256 -249 -185 -186 c-159 -160 -185 -191
-185 -217 0 -18 8 -38 21 -49 20 -18 40 -19 313 -19 l291 0 3 -107 3 -108 -73
-2 c-40 -1 -82 -2 -93 -2 -18 -1 -20 -9 -23 -99 -2 -58 1 -97 7 -97 5 0 21 4
35 10 24 9 26 15 26 65 l0 55 60 0 60 0 0 -39 c0 -38 1 -39 28 -32 20 6 28 14
30 37 2 16 9 32 15 36 7 4 62 8 122 8 92 0 126 5 205 29 65 19 96 34 98 45 2
9 -24 45 -62 84 l-66 69 0 529 0 529 133 133 133 133 457 -443 457 -442 0
-149 0 -149 23 6 c12 3 25 6 30 6 4 0 7 50 7 112 l0 112 53 -49 c122 -117 121
-116 156 -109 l33 7 -121 121 -121 121 -7 558 -6 557 292 0 292 0 24 25 c47
46 79 8 -496 573 l-177 173 -42 -3 -43 -3 354 -343 c195 -189 356 -348 357
-353 2 -5 -123 -9 -308 -9 l-311 0 3 -555 c2 -305 1 -555 -1 -555 -3 0 -79 73
-170 163 -229 224 -519 506 -622 605 -118 112 -114 112 -259 -33 -63 -63 -118
-115 -122 -115 -5 0 -8 109 -8 241 l0 241 -317 -7 c-176 -4 -314 -3 -310 1 5
5 168 170 363 367 l354 357 -43 0 -43 0 -339 -339 c-185 -187 -341 -345 -346
-353 -16 -25 -9 -57 18 -78 27 -21 34 -21 313 -19 l285 3 3 -245 2 -244 -258
-258 -258 -257 -264 256 c-145 141 -274 260 -285 264 -32 12 -68 -7 -125 -66
-29 -30 -54 -53 -55 -52 -3 4 -15 945 -15 1191 l0 197 -32 0 -31 0 6 -729z
m1325 -1190 l3 -383 -241 233 -240 233 232 233 233 233 5 -82 c3 -46 7 -256 8
-467z m-200 -273 l202 -197 0 -66 0 -65 -125 0 -125 0 0 140 0 140 -317 0
-318 0 180 180 179 179 61 -57 c33 -31 151 -145 263 -254z m307 -298 l29 -30
-31 0 c-26 0 -31 4 -35 30 -3 17 -2 30 2 30 3 0 19 -13 35 -30z"/>
<path d="M10920 6265 c0 -21 5 -35 13 -35 6 0 64 16 127 35 l115 34 -127 0
-128 1 0 -35z"/>
<path d="M10953 5882 l-603 -177 0 -979 c0 -778 3 -977 13 -973 6 2 294 87
640 188 l627 184 0 196 0 196 -267 -78 c-148 -44 -269 -79 -270 -79 -2 0 -3
96 -3 214 l0 213 173 51 c94 28 198 58 230 67 l57 16 0 185 c0 101 -4 184 -8
184 -7 0 -358 -102 -431 -125 -21 -6 -21 -5 -21 179 l0 185 48 14 c26 8 136
40 245 72 l197 58 0 194 c0 148 -3 193 -12 192 -7 0 -284 -80 -615 -177z"/>
<path d="M9410 5429 c-410 -120 -769 -226 -797 -234 l-53 -16 0 -195 c0 -181
1 -195 18 -190 190 56 402 116 411 116 8 0 11 -202 11 -775 0 -517 3 -775 10
-775 8 0 553 158 713 206 16 5 17 51 17 787 l0 782 98 28 c53 15 152 44 220
64 l122 36 0 193 c0 149 -3 194 -12 193 -7 0 -348 -99 -758 -220z"/>
<path d="M7587 4895 c-285 -84 -519 -154 -521 -156 -5 -8 -376 -2053 -372
-2056 4 -4 723 205 746 217 12 7 20 47 34 162 10 84 20 165 23 179 4 24 16 29
131 62 69 20 129 34 133 29 5 -5 39 -281 39 -314 0 -5 6 -8 13 -8 10 0 737
210 745 215 2 1 -385 1682 -415 1803 -3 12 -12 22 -22 21 -9 0 -249 -70 -534
-154z m118 -969 c14 -89 28 -179 31 -201 l6 -41 -123 -36 c-68 -21 -125 -36
-127 -34 -8 9 117 779 135 826 3 8 16 -68 29 -169 13 -101 35 -256 49 -345z"/>
<path d="M6012 4415 c-184 -39 -530 -135 -1124 -311 -17 -5 -18 -60 -18 -980
0 -715 3 -974 11 -974 21 0 1093 318 1189 353 303 110 449 235 491 422 20 87
20 1243 0 1329 -17 78 -83 147 -162 170 -80 24 -249 20 -387 -9z m-201 -424
l24 -19 0 -539 c0 -296 -4 -555 -8 -576 -12 -56 -57 -101 -132 -131 -36 -14
-70 -26 -75 -26 -7 0 -10 224 -10 639 l0 639 33 11 c85 26 138 27 168 2z"/>
<path d="M12187 4008 l-29 -10 6 -687 c3 -377 8 -866 11 -1086 3 -220 8 -811
11 -1312 l7 -913 28 0 c15 0 29 4 31 10 2 5 0 351 -3 767 -3 417 -9 1154 -13
1638 -5 775 -16 1598 -20 1601 0 1 -14 -3 -29 -8z"/>
<path d="M11781 3889 l-24 -9 6 -408 c4 -224 10 -882 13 -1462 3 -580 7 -1068
9 -1085 2 -16 4 -231 4 -477 l1 -448 31 0 31 0 -7 1208 c-4 664 -9 1210 -11
1213 -2 4 -5 278 -6 610 -2 652 -6 869 -16 868 -4 0 -18 -5 -31 -10z"/>
<path d="M4163 3875 c-119 -22 -227 -51 -671 -181 -233 -68 -426 -124 -428
-124 -2 0 -4 -440 -4 -978 l0 -979 318 94 c174 51 341 100 370 108 l52 16 0
392 0 393 173 52 c282 87 425 156 538 260 119 110 139 180 139 492 0 209 -10
301 -37 354 -24 46 -73 85 -127 101 -61 18 -222 18 -323 0z m-154 -421 c19
-24 21 -40 21 -183 0 -143 -2 -161 -22 -201 -25 -48 -70 -77 -160 -104 l-48
-14 0 249 0 248 38 10 c113 29 145 28 171 -5z"/>
<path d="M11281 3743 l-24 -5 6 -506 c4 -279 10 -948 14 -1487 3 -539 7 -991
8 -1005 1 -14 3 -186 3 -382 l2 -358 32 0 31 0 -6 788 c-4 433 -9 1113 -12
1512 -7 913 -15 1450 -24 1449 -3 -1 -17 -4 -30 -6z"/>
<path d="M10971 3649 l-24 -9 8 -1158 c4 -636 9 -1170 10 -1187 2 -16 4 -302
5 -635 1 -333 4 -617 7 -632 4 -23 11 -28 35 -28 l31 0 -7 287 c-3 159 -9 752
-12 1318 -4 567 -8 1044 -9 1060 -1 17 -3 247 -3 513 -1 265 -5 482 -9 481 -5
0 -19 -5 -32 -10z"/>
<path d="M10541 3521 c-11 -7 -12 -186 -6 -1147 5 -627 9 -1146 10 -1154 1 -8
2 -286 3 -617 l2 -603 36 0 35 0 -5 273 c-3 149 -8 592 -11 982 -15 2140 -17
2275 -34 2275 -9 0 -22 -4 -30 -9z"/>
<path d="M2388 3372 l-357 -106 -3 -800 c-3 -744 -4 -803 -21 -833 -18 -33
-50 -55 -100 -67 -42 -10 -64 1 -76 36 -8 21 -11 278 -11 816 l0 784 -27 -7
c-15 -3 -179 -51 -365 -106 -186 -54 -340 -99 -343 -99 -9 0 -5 -1474 5 -1549
21 -161 112 -236 316 -261 106 -13 209 -6 371 26 539 106 943 400 983 714 5
42 10 405 10 818 0 588 -3 742 -12 741 -7 -1 -174 -49 -370 -107z"/>
<path d="M10047 3378 c-23 -8 -27 -14 -23 -37 3 -14 8 -550 12 -1191 4 -641 8
-1178 9 -1195 2 -16 3 -238 4 -492 l1 -463 31 0 32 0 -8 1168 c-4 642 -9 1181
-10 1197 -1 17 -3 254 -3 528 -1 273 -5 497 -9 496 -5 0 -21 -5 -36 -11z"/>
<path d="M9722 3283 c-10 -4 -12 -136 -7 -691 3 -378 7 -824 10 -992 3 -168 6
-539 7 -825 1 -286 4 -577 6 -648 l3 -127 31 0 31 0 -6 438 c-4 240 -10 894
-13 1452 -4 558 -8 1024 -9 1035 -1 11 -3 98 -4 193 -1 157 -3 172 -18 171
-10 0 -24 -3 -31 -6z"/>
<path d="M9546 3233 c-19 -5 -19 -25 -13 -922 4 -504 10 -1230 14 -1613 l6
-698 30 0 30 0 -6 888 c-15 1995 -20 2352 -31 2351 -6 -1 -20 -4 -30 -6z"/>
<path d="M8731 2989 l-24 -9 6 -263 c4 -144 10 -748 13 -1342 4 -594 8 -1089
9 -1100 1 -11 3 -77 4 -147 l1 -128 30 0 31 0 -6 698 c-3 383 -7 828 -10 987
-3 160 -5 495 -6 745 -1 442 -5 571 -18 569 -3 0 -17 -5 -30 -10z"/>
<path d="M8317 2868 l-27 -10 5 -821 c3 -452 8 -847 10 -877 2 -30 4 -304 5
-607 l0 -553 36 0 36 0 -6 147 c-3 82 -8 593 -11 1138 -4 829 -13 1587 -19
1591 0 1 -13 -3 -29 -8z"/>
<path d="M8146 2818 l-28 -10 6 -132 c3 -72 9 -640 12 -1261 4 -622 8 -1142 9
-1155 1 -14 3 -78 4 -142 l1 -118 31 0 32 0 -7 378 c-3 207 -9 841 -12 1407
-4 567 -9 1033 -13 1036 -3 4 -19 2 -35 -3z"/>
<path d="M7817 2723 c-17 -4 -18 -46 -12 -1001 4 -549 8 -1010 10 -1027 2 -16
4 -180 4 -362 l1 -333 31 0 31 0 -7 1068 c-4 587 -9 1078 -11 1092 -1 14 -3
148 -3 298 -1 285 0 277 -44 265z"/>
<path d="M7510 2630 l-25 -6 0 -464 c1 -482 7 -1509 13 -1922 l3 -238 31 0 31
0 -7 683 c-13 1403 -18 1952 -20 1953 0 0 -12 -2 -26 -6z"/>
<path d="M6570 2354 c-322 -95 -609 -180 -637 -189 l-52 -15 4 -203 c4 -185
15 -1468 15 -1804 l0 -143 651 0 650 0 -6 988 c-4 543 -8 1007 -10 1032 -2 25
-4 150 -4 278 -1 179 -4 232 -13 231 -7 -1 -276 -79 -598 -175z"/>
<path d="M5598 2068 l-28 -10 5 -506 c3 -279 7 -673 10 -877 3 -203 5 -439 5
-522 l0 -153 32 0 31 0 -6 588 c-4 323 -8 769 -9 992 -1 223 -4 426 -7 451 -6
45 -7 46 -33 37z"/>
<path d="M4931 1873 l-24 -5 6 -501 c4 -276 7 -697 7 -934 l0 -433 36 0 37 0
-6 138 c-4 75 -8 380 -9 677 -3 758 -8 1065 -16 1064 -4 -1 -18 -4 -31 -6z"/>
<path d="M4591 1769 l-24 -9 6 -148 c4 -81 8 -401 9 -712 1 -311 4 -640 6
-732 l3 -168 31 0 31 0 -6 413 c-4 226 -7 627 -7 890 0 375 -3 477 -12 476 -7
0 -24 -5 -37 -10z"/>
<path d="M4356 1703 c-19 -5 -19 -21 -13 -677 4 -369 7 -751 7 -848 l0 -178
30 0 30 0 0 338 c0 656 -13 1372 -24 1371 -6 -1 -20 -4 -30 -6z"/>
<path d="M4086 1623 c-19 -5 -19 -19 -13 -582 4 -317 7 -681 7 -808 l0 -233
30 0 30 0 -2 528 c-5 960 -7 1102 -21 1101 -7 -1 -21 -4 -31 -6z"/>
<path d="M3370 1410 l-25 -6 0 -394 c0 -217 2 -533 3 -702 l2 -308 31 0 32 0
-7 708 c-5 389 -9 707 -9 708 -1 0 -13 -2 -27 -6z"/>
<path d="M3056 1317 l-29 -10 6 -566 c4 -311 7 -605 7 -653 l0 -88 32 0 31 0
-7 662 c-4 364 -8 663 -9 664 -1 1 -15 -3 -31 -9z"/>
<path d="M2860 1261 c-24 -7 -25 -10 -24 -77 1 -38 2 -320 3 -626 l1 -558 36
0 37 0 -6 88 c-4 48 -7 333 -7 635 0 301 -3 547 -7 546 -5 -1 -19 -4 -33 -8z"/>
<path d="M2211 1069 l-24 -10 6 -331 c4 -182 7 -421 7 -530 l0 -198 30 0 30 0
-2 387 c-2 480 -7 693 -16 692 -4 0 -18 -5 -31 -10z"/>
<path d="M1808 948 c-14 -12 -15 -65 -10 -480 l5 -468 28 0 29 0 0 480 c0 456
-1 480 -18 480 -10 0 -25 -6 -34 -12z"/>
<path d="M973 703 c-10 -4 -13 -84 -13 -354 l0 -349 30 0 30 0 0 355 c0 332
-1 355 -17 354 -10 0 -24 -3 -30 -6z"/>
<path d="M653 610 l-23 -9 0 -301 0 -300 36 0 37 0 -6 143 c-4 78 -7 217 -7
310 0 92 -3 167 -7 166 -5 0 -18 -4 -30 -9z"/>
</g>
</svg>
